<svg id="Isolation_Mode" data-name="Isolation Mode" xmlns="http://www.w3.org/2000/svg" viewBox="0 0 205.92 104.26"><defs><style>.cls-1{fill:#e6e7e8;}.cls-1,.cls-2,.cls-3,.cls-4{fill-rule:evenodd;}.cls-2{fill:#fff;}.cls-3{fill:#d1d3d4;}.cls-4{fill:#58595b;}</style></defs><path class="cls-1" d="M461.9,470.69l205.66,0v68.17l-.83-.25s-11.54-4.41-19.48-4.42c-11,0-15.78,6.58-27,6.58s-16.45-6.45-27.46-6.52c-11.27-.08-16.89,6.58-28.16,6.51-11-.07-16.45-6.48-27.44-6.53-11.24-.05-16.83,6.57-28.07,6.53-11,0-16.28-6.54-27.55-6.54-9.53,0-19.66,4.49-19.66,4.49Z" transform="translate(-461.63 -470.66)"/><path class="cls-2" d="M461.76,546.3s10.14-4.48,19.66-4.48c11.27,0,16.52,6.51,27.56,6.54,11.23,0,16.82-6.57,28.06-6.53,11,0,16.44,6.46,27.44,6.53,11.28.08,16.89-6.59,28.17-6.51,11,.08,16.19,6.52,27.45,6.52s16-6.57,27-6.57c7.94,0,19.48,4.41,19.48,4.41l.78.25v28.3l-205.59,0Zm205.6,28.59h.12V546.37l-.85-.28c-.12-.05-11.66-4.41-19.55-4.41-5.47,0-9.49,1.66-13.37,3.26s-8,3.3-13.61,3.3-9.85-1.66-13.91-3.27-8.08-3.21-13.54-3.25h-.2c-5.56,0-9.82,1.66-13.93,3.27s-8.32,3.24-13.84,3.24h-.2c-5.47,0-9.64-1.67-13.67-3.26s-8.24-3.24-13.77-3.27h-.11c-5.59,0-9.85,1.67-14,3.27s-8.34,3.26-13.89,3.26H509c-5.46,0-9.58-1.65-13.56-3.24s-8.3-3.29-14-3.29c-9.44,0-19.61,4.44-19.71,4.49l-.08,0v28.7h.13Zm-205.47-28.5c.95-.41,10.57-4.44,19.53-4.44,5.65,0,9.85,1.67,13.9,3.28s8.15,3.24,13.66,3.26h.08c5.6,0,9.86-1.67,14-3.28s8.34-3.25,13.88-3.25H537c5.48,0,9.65,1.66,13.68,3.25s8.24,3.24,13.76,3.28h.2c5.56,0,9.82-1.66,13.93-3.27s8.33-3.25,13.84-3.25h.2c5.42,0,9.5,1.67,13.45,3.24s8.29,3.29,14,3.29,9.75-1.69,13.7-3.32,7.85-3.25,13.3-3.25c7.83,0,19.32,4.35,19.44,4.4l.69.22v28.09l-205.33,0V546.39m20.94,7.13h-4.17l-7.8,15.4h4l1.56-3.41h4.7l.41,3.41h4.1Zm-5.37,9.82,2.68-5.89.73,5.89Zm4-14.54h-3.3l2.82,3.67h2.26Zm16.8,9.76a6.05,6.05,0,0,0-1-.85,2,2,0,0,0-1.11-.31c-.79,0-1.69.61-2.71,1.83l.24-1.63H490l-1.69,11.32H492l1-6.47c.61-1.05,1.28-1.57,2-1.57a1.31,1.31,0,0,1,.94.37,4.2,4.2,0,0,1,.66.89l1.75-3.58m11.84,4a5.88,5.88,0,0,0-.65-2.87,4.25,4.25,0,0,0-1.76-1.73,5.13,5.13,0,0,0-2.41-.57,5.94,5.94,0,0,0-3.18.88,6.14,6.14,0,0,0-2.2,2.35,6.74,6.74,0,0,0-.79,3.23,6.3,6.3,0,0,0,.48,2.36,4.4,4.4,0,0,0,1.8,2,6.63,6.63,0,0,0,3.63.86,8.23,8.23,0,0,0,1.81-.17,13.59,13.59,0,0,0,1.9-.64l.57-2.78q-1.26.51-2.16.78a7.56,7.56,0,0,1-2.05.26,2,2,0,0,1-2.3-2.34H510a9.57,9.57,0,0,0,.15-1.66m-7-.34a6.8,6.8,0,0,1,.86-1.65,1.48,1.48,0,0,1,1.26-.63c.88,0,1.32.64,1.32,1.91v.22a.76.76,0,0,0,0,.15Zm21.73-4.47c-.83-.13-1.47-.23-1.91-.28a15.81,15.81,0,0,0-1.71-.08,11.78,11.78,0,0,0-4.17.65,6.64,6.64,0,0,0-2.62,1.71,6.07,6.07,0,0,0-1.29,2.19,7.56,7.56,0,0,0-.36,2.26,6,6,0,0,0,.5,2.44,4.42,4.42,0,0,0,1.43,1.8,3.54,3.54,0,0,0,2.12.67,3.24,3.24,0,0,0,1.55-.33,7.49,7.49,0,0,0,1.25-.89l-.18,1h3.68l1.71-11.16M520,565.34a8.62,8.62,0,0,1-1.15.64,2.21,2.21,0,0,1-.81.18,1.29,1.29,0,0,1-1.11-.54,2.15,2.15,0,0,1-.39-1.3,4.74,4.74,0,0,1,.47-2.09,3.83,3.83,0,0,1,1.29-1.54,3.14,3.14,0,0,1,1.83-.56h.69Zm24.41-11.82-.59,4a14,14,0,0,0-1.52-.09,8.12,8.12,0,0,0-3.24.59,6.1,6.1,0,0,0-3.41,3.57,6.05,6.05,0,0,0-.38,2.06,5,5,0,0,0,1.73,4,7.29,7.29,0,0,0,4.87,1.49,25.66,25.66,0,0,0,4-.36l2.17-15.24ZM542.59,566a2.92,2.92,0,0,1-.72.07,3.11,3.11,0,0,1-1.58-.36,2.06,2.06,0,0,1-.88-.9,2.28,2.28,0,0,1-.27-1.09,3.38,3.38,0,0,1,.31-1.3,3.07,3.07,0,0,1,1.19-1.32,4.33,4.33,0,0,1,2.39-.58h.36Zm18.4-3.39a5.77,5.77,0,0,0-.66-2.87,4.28,4.28,0,0,0-1.75-1.73,5.14,5.14,0,0,0-2.42-.57,5.91,5.91,0,0,0-3.17.88,6.07,6.07,0,0,0-2.2,2.35,6.74,6.74,0,0,0-.79,3.23,6.48,6.48,0,0,0,.47,2.36,4.48,4.48,0,0,0,1.81,2,6.63,6.63,0,0,0,3.63.86,8.23,8.23,0,0,0,1.81-.17,13.59,13.59,0,0,0,1.9-.64l.57-2.78q-1.26.51-2.16.78a7.63,7.63,0,0,1-2.06.26,2.05,2.05,0,0,1-2.3-2.34h7.16a8.71,8.71,0,0,0,.16-1.66m-7-.34a6.8,6.8,0,0,1,.86-1.65,1.47,1.47,0,0,1,1.26-.63c.88,0,1.32.64,1.32,1.91a1.28,1.28,0,0,1,0,.22v.15Zm32.1-8.38q-1.4-.29-2.28-.42a14.9,14.9,0,0,0-2-.13,11.59,11.59,0,0,0-4.78.88,8.11,8.11,0,0,0-3,2.24,8.72,8.72,0,0,0-1.56,2.85,9.79,9.79,0,0,0-.46,2.85,7.32,7.32,0,0,0,.6,3,6.23,6.23,0,0,0,1.7,2.23,7.12,7.12,0,0,0,2.48,1.34,9.59,9.59,0,0,0,2.92.44,9.08,9.08,0,0,0,1.49-.12,11.16,11.16,0,0,0,1.2-.25c.32-.1.72-.23,1.17-.4l1.24-.48.7-4.25a9.78,9.78,0,0,1-5.6,2,3.82,3.82,0,0,1-1.93-.49,3.56,3.56,0,0,1-1.37-1.38,4.12,4.12,0,0,1-.48-2,4.84,4.84,0,0,1,1.67-3.71,5.54,5.54,0,0,1,1.82-1.06,6.35,6.35,0,0,1,2.13-.36,9.28,9.28,0,0,1,1.14.07c.39,0,.81.11,1.25.2a11.87,11.87,0,0,1,1.37.38l.65-3.47m10.12,3.75-1,6.86a13.78,13.78,0,0,1-1.51,1.28,2,2,0,0,1-1.13.38c-.63,0-.94-.36-.94-1.07a3.53,3.53,0,0,1,0-.39l1-7.06H589l-1,6.84a11,11,0,0,0-.12,1.24,4.79,4.79,0,0,0,.28,1.55,2.82,2.82,0,0,0,2.87,1.89,4.4,4.4,0,0,0,1.2-.16,5.87,5.87,0,0,0,1-.36,8.1,8.1,0,0,0,.86-.53l.68-.48-.19,1.33h3.69l1.69-11.32Zm8.7-4.08-2.28,15.4h3.75l2.28-15.4Zm11.85,4.08.43-2.25h-3.73L613,557.6H610.9l-.5,2.78h2.09l-.77,4.15a6.73,6.73,0,0,0-.12,1.23,3.22,3.22,0,0,0,.69,2.14,3.18,3.18,0,0,0,1.28,1,4.15,4.15,0,0,0,1.43.26,6.24,6.24,0,0,0,3.21-.9l.21-3.42a4,4,0,0,1-2.19,1c-.56,0-.84-.31-.84-.94a4.26,4.26,0,0,1,.09-.74l.75-3.69h2.19l.59-2.78Zm13,0-1,6.86a12.89,12.89,0,0,1-1.51,1.28,2,2,0,0,1-1.13.38c-.62,0-.93-.36-.93-1.07a2.07,2.07,0,0,1,0-.39l1-7.06h-3.68l-1,6.84c-.07.59-.11,1-.11,1.24a4.54,4.54,0,0,0,.28,1.55,2.79,2.79,0,0,0,2.86,1.89,4.4,4.4,0,0,0,1.2-.16,6,6,0,0,0,1-.36,7.14,7.14,0,0,0,.85-.53l.69-.48-.19,1.33h3.69l1.69-11.32Zm16.17,1a5.69,5.69,0,0,0-1-.85,2,2,0,0,0-1.1-.31c-.8,0-1.7.61-2.71,1.83l.23-1.63h-3.67l-1.69,11.32h3.67l1-6.47c.6-1.05,1.27-1.57,2-1.57a1.3,1.3,0,0,1,.93.37,4.23,4.23,0,0,1,.67.89l1.74-3.58m12.86-.8c-.82-.13-1.46-.23-1.91-.28a15.54,15.54,0,0,0-1.71-.08,11.68,11.68,0,0,0-4.16.65,6.56,6.56,0,0,0-2.62,1.71,6.25,6.25,0,0,0-1.3,2.19,7.89,7.89,0,0,0-.36,2.26,6,6,0,0,0,.5,2.44,4.42,4.42,0,0,0,1.43,1.8,3.54,3.54,0,0,0,2.12.67,3.21,3.21,0,0,0,1.55-.33,7.49,7.49,0,0,0,1.25-.89l-.18,1h3.68l1.71-11.16M654,565.34a8.62,8.62,0,0,1-1.15.64,2.21,2.21,0,0,1-.81.18,1.29,1.29,0,0,1-1.11-.54,2.22,2.22,0,0,1-.38-1.3,4.74,4.74,0,0,1,.46-2.09,3.85,3.85,0,0,1,1.3-1.54,3.13,3.13,0,0,1,1.82-.56h.69Z" transform="translate(-461.63 -470.66)"/><path class="cls-3" d="M554,520a28.3,28.3,0,0,1-3.83,2.85l8.64,9.27c3,2.93,10.48,6.09,16.57,3.16A15.9,15.9,0,0,0,574,520h-1.86l.47.5a14.75,14.75,0,0,1,2,4.65L569.78,520h-2.62l8.2,8.77-.19,2.29L564.83,520h-2.64l12.25,13.1a9.07,9.07,0,0,1-.1,1.21c-.45.21-1,0-1.19.12L559.63,520h-2.78l14.07,15-2.29,0-13.36-14.27.83-.77Zm11.17,14.28a15.16,15.16,0,0,1-5.57-3.37l-7.4-7.9,1.34-1.25,11.58,12.37Z" transform="translate(-461.63 -470.66)"/><path class="cls-3" d="M556.71,501.81v0a10.69,10.69,0,0,0-.88,1.67c-.26.54-.39.85-.61,1.41-.05,1.19,0,1.62,0,2.35-.06.55.68,3.1.59,3.66a7.4,7.4,0,0,1-.29,1.68,8.55,8.55,0,0,1-.45,1.46,22,22,0,0,0,2.69-.24,15.93,15.93,0,0,0,2.76-.53s-.09,1.24-4.63,5.18c-.68.59-1.28,1.1-1.82,1.55h2.08l.4-.37.35.37h2.78l-1.44-1.54,1.37-1.27,2.63,2.81h2.64l-4.07-4.35,1.25-1.16,5.15,5.51h2.62l-6.89-7.3,1.29-1.2,7.21,7.74.73.76H574c-.19-.27-.36-.5-.53-.71l-2.3-2.46a24.64,24.64,0,0,1,3.91-1.14l4.21-.81s-1.22-1.48-1.66-2.14-.61-1-1-1.6-.66-1.12-1.06-1.86-.71-1.31-1.12-2.17c-.63-1.33-1-2.08-1.52-3.45-.27-.72-.5-1.3-.71-1.87H570.6a60.6,60.6,0,0,0,3.21,7.89,31.55,31.55,0,0,0,2.6,4.31l-6.65,1.61a17.87,17.87,0,0,1-1.43-1.54c.72.07,1.87-.21,5.8-.22,0,0-.71-.17-2.91-4.43a24.55,24.55,0,0,1-1.46-3.1c-.14-.4-.54,0-1.36,0l.38,1.08,2,5.13-1.72-.15-2.67-10.6h-1.91L567.36,513l-1.67-1.78.61-.51-.54-1.34a15.06,15.06,0,0,1-1.66.94,19.14,19.14,0,0,1-2.66,1.06,19.85,19.85,0,0,1-2.84.77,18.2,18.2,0,0,1-1.8.28,4.26,4.26,0,0,0,.41-1.72,8.59,8.59,0,0,0-.18-1.75c-.1-.72-.26-1.12-.31-1.85a9.12,9.12,0,0,1,0-1.28l4.76-1.24-.16-1.9L557,503.91l1.29-2.1Zm12.67,0,.14.51.9-.13.44,1.35-.94.15.56,1.69-1.39.26-.52-1.76-1,.22-.38-1.41,1-.24-.19-.64Z" transform="translate(-461.63 -470.66)"/><path class="cls-3" d="M556.87,492.71a2.71,2.71,0,0,1,.09,1.19l1.73.12c-.2.47-.32.74-.5,1.22l-.45,1.22a7.35,7.35,0,0,0-1.18-1.12,7.14,7.14,0,0,0-1.24-.81,6,6,0,0,0-1.43-.54,4.67,4.67,0,0,1,0,1,4.72,4.72,0,0,1-.12.84,4.85,4.85,0,0,1,.92.35,5.58,5.58,0,0,1,1.09.62,3.51,3.51,0,0,1,1.1.92,2.93,2.93,0,0,1,.54,2.24,3.51,3.51,0,0,1-.7,1.86h1.61l.94-1.53a10.71,10.71,0,0,1,2-.56,9.92,9.92,0,0,1,2.66-.24l.6,2.33h1.91l-.59-2.3a9.24,9.24,0,0,1,2.62-.32l1.67.18a6.67,6.67,0,0,0,.48,2.44h1.61a17.54,17.54,0,0,1-.57-2,8,8,0,0,1-.27-1.38,4.27,4.27,0,0,1,0-1.47,3.91,3.91,0,0,1,.41-1.19,2.4,2.4,0,0,1,.77-.93,2.14,2.14,0,0,1,2.22-.24,3.9,3.9,0,0,1-.51-1.91h-1.42a2.22,2.22,0,0,0,.21.57,2.65,2.65,0,0,0-1.15.22,2.69,2.69,0,0,0-1.13.74,2.53,2.53,0,0,0-.44.72,3.76,3.76,0,0,0-.5,2l-.9,0v-1.32l-1.73,0V497l-2.42.07-.09-1.11,1.16-.06-.06-1.73-1.19.05-.09-1.3L563,493l0,1.29-1.13.06L562,496l1.06-.07.1,1.34-1.6.24-.17-1.06-1.29.29.1,1-1.3.48a9.62,9.62,0,0,1,.38-1.77,9.07,9.07,0,0,1,.79-1.9,8.67,8.67,0,0,1,1-1.53l.32-.35h-1.62c0,.25.06.47-.57,0l0,0Zm9.72,0a2.17,2.17,0,0,0,.77.69,2,2,0,0,0,1.58.26,1.8,1.8,0,0,0,1.3-1Zm1.43,9.1-.29-1,1.32-.21.33,1.21Z" transform="translate(-461.63 -470.66)"/><path class="cls-3" d="M559.16,492.71a1.55,1.55,0,0,1-.44-.51c-.32-.5-.06-1-.45-1.46a1.47,1.47,0,0,0-.5-.43,2.16,2.16,0,0,0-1.4-.09,3.62,3.62,0,0,0-1.5.48,2.8,2.8,0,0,1,1.72,1.4,3.64,3.64,0,0,1,.28.61Zm2.22,0,.49-.5c.54-.56.89-.82,1.46-1.33s.74-.57,1.15-1a9.59,9.59,0,0,0,1.12-1.34,5.1,5.1,0,0,0,.71-1.07,2.89,2.89,0,0,0,.25-1.29,2.34,2.34,0,0,0-.51-1.47,2.45,2.45,0,0,0-1.2-1,2.89,2.89,0,0,0-1.44-.34,3.73,3.73,0,0,0-1.81.61,18,18,0,0,0-2,1.54c1-1.78.65-1.78,1.32-2.78.43-.64.15-.23.94-.9a1.63,1.63,0,0,1,1.24-.28c.1-.32,0-.82-.11-.86-.52-.14-.42.07-1.38-.21-.3-.09,0-.5-.18-.62-.38-.2-1.19-.1-.6-.78.08-.38.5.21.85.23s.44.23,1.11,0,.24-1.15.83-1.36a1.06,1.06,0,0,1,.53-.09c.57.08.39,1,.6,1.37,1,1.7.18.73,1,1.82.27.38.75,1,1.2,1.48.64.74,1.67,1.62,1.77,2.07a4.29,4.29,0,0,1-.77,2.76,16,16,0,0,0-1.19,2,4.25,4.25,0,0,0-.57,1.84,2.52,2.52,0,0,0,.23,1.21,2.74,2.74,0,0,0,.19.34h3.65l0-.1a2.09,2.09,0,0,0,.26-1.07,2.6,2.6,0,0,0-.18-1.14,2.84,2.84,0,0,0-1.09-1.46,1.76,1.76,0,0,1,.63-.67,2.08,2.08,0,0,1,1.23-.32,2.33,2.33,0,0,1,.79.06,3.2,3.2,0,0,1,.12-.87c.12-.4.09-.28.5-.94a1.36,1.36,0,0,1-.87-.25,1.58,1.58,0,0,1-.45-.51,2.1,2.1,0,0,1-.37-1,6.64,6.64,0,0,1,.39-2.5c.15-1.17,0-1.07-.25-2.6a4.07,4.07,0,0,0,1.77,1.51,5.91,5.91,0,0,0,2.33.81,3.26,3.26,0,0,0-2,1.24,2.47,2.47,0,0,0-.59,1.1c-.1.81.33.87.67.94.58.1,1.27-.89,1.13-.56a2.93,2.93,0,0,0-.19,2.07,3.73,3.73,0,0,0,.48,1.43l-2,.42,0,1.11,1.82-.26a3.09,3.09,0,0,0-1.25,1.36c-.12.27-.35.18-.38,1.61a2.39,2.39,0,0,0,0,.55h1.42v-.07a3.22,3.22,0,0,1,.09-1.2,3.32,3.32,0,0,1,.83-1.33,5.16,5.16,0,0,1,1.53-1.21,3.19,3.19,0,0,1-1.06-1.32,4,4,0,0,1-.39-2,5.85,5.85,0,0,1,.3-2,5.07,5.07,0,0,1,1.29-2.48,7.17,7.17,0,0,1-2.5-.74,8.05,8.05,0,0,1-1.07-.63,13.65,13.65,0,0,1-4.24-4.08,21.65,21.65,0,0,1,.55,2.54,10.67,10.67,0,0,1,.26,2.39,9.25,9.25,0,0,1-.24,1.72c-.09.41-.14.64-.25,1.05a30.39,30.39,0,0,1-2.62-3.08c-.64-.93-1.1-1.21-1.27-2.31,0-.38-.11-.44-.11-1a1,1,0,0,0-.55-.91c-.34-.19,0-.15-1,0a.81.81,0,0,0-.58.28c-.19.2-.15.39-.29.63a1.88,1.88,0,0,1-.93,1,1.65,1.65,0,0,1-1.34.05l0-1a6.17,6.17,0,0,1-.93.36,4.89,4.89,0,0,1-.64.14,4.78,4.78,0,0,1,.18.9,6,6,0,0,0,.08.85,1.76,1.76,0,0,0,1,1.2c-.18.28-.32.41-.5.71a12.39,12.39,0,0,0-.67,1.24c-.24.49-.26.82-.53,1.3a4.79,4.79,0,0,1-1.82,2c.24.35.37.51.57.8a6.7,6.7,0,0,0,.45.6l1.4-1-.29,2.63.59-.34,1.3.52a2.7,2.7,0,0,1,0-1.64,3.67,3.67,0,0,1,.4-.88,2.52,2.52,0,0,1,.72-1,1.87,1.87,0,0,1,1-.44,1.55,1.55,0,0,1,1.36.25,1.39,1.39,0,0,1,.49,1.16,2.43,2.43,0,0,1-.52,1.38,6.93,6.93,0,0,1-1.49,1.67c-.64.65-1.13.88-1.79,1.53a14.6,14.6,0,0,0-1.26,1.37c-.06.08,0,.23,0,.36Zm8-9.39a3.68,3.68,0,0,1,.62,1.61c-.09,2.73-2.3,3.76-2.34,5.92,0,.52.28,1,.73,1.06.9,0,.87-.74.77-1.48a2,2,0,0,0-1-1.22s.17-.33.39-.67a8.12,8.12,0,0,0,.61-.93,5.81,5.81,0,0,0,.69-1.51,4.19,4.19,0,0,0,.18-1.17,2.32,2.32,0,0,0-.25-.93Z" transform="translate(-461.63 -470.66)"/><path class="cls-4" d="M496,505.28h-7.29v1.15h2c.57,0,.92.07.92.51A21.46,21.46,0,0,1,490,511.8l-4.53,9.83L480,509.82c-.8-1.7-1.48-3-1.48-3.15s.22-.24.64-.24h1.6v-1.15H471.3v1.15h1.22c1,0,1.29.45,3.05,4.12l8,17.13c.12.25.19.39.46.39s.38-.21.57-.59l9.07-20.19c.39-.86.42-.86.65-.86H496Z" transform="translate(-461.63 -470.66)"/><path class="cls-4" d="M507.41,519.31l2.29,6c.26.69.15.83-.57.83h-1.72v1.14H517v-1.14h-.91c-1.3,0-1.6-.45-2.74-3.26-2.1-5.22-6.37-15.41-6.37-16.61,0-.7.76-.77.76-1.18a.4.4,0,0,0-.38-.45,25.91,25.91,0,0,0-3.05.55c-3.89,8.31-7.85,16.52-9.45,20.33a.9.9,0,0,1-1,.62h-1.22v1.14h7.74v-1.14h-2.18c-.65,0-1.06-.11-1.06-.76,0-1,1.33-4.16,2.13-6.06ZM506.8,518h-6.9c1.18-2.74,2.36-5.51,3.77-8.25Z" transform="translate(-461.63 -470.66)"/><path class="cls-4" d="M527,507c0-.35,0-.55.54-.55h1.71v-1.15h-9.83v1.15h1.71c1.22,0,1.45.13,1.45,4.7v14.45c0,.34-.08.55-.57.55H520.3v1.14h17.9a19.79,19.79,0,0,0,1-3.29.39.39,0,0,0-.42-.41c-.34,0-.42.2-.58.44-1.18,1.91-6.36,1.91-8.42,1.91h-1.33c-1.3,0-1.45-.1-1.45-7.48Z" transform="translate(-461.63 -470.66)"/><path class="cls-4" d="M554.06,502.93c-.54-.73-4.23-3.49-5-3.49-.45,0-1.29.82-1.6,1.14a41,41,0,0,1,5.68,3.11ZM542.7,527.27h17.92a19.31,19.31,0,0,0,1-3.29.39.39,0,0,0-.42-.41c-.34,0-.42.2-.56.44-1.18,1.91-6.37,1.91-8.43,1.91h-1.33c-1.3,0-1.45-.1-1.45-7.48v-2.53H553c4,0,4.19.38,4.19,1v1.24h1.15V512h-1.15v1.21c0,1-.14,1.42-4.19,1.42h-3.54v-7.59c0-.34.12-.45.49-.45h2.75c4.35,0,6.37.83,6.4,1.43s.12.76.61.76.42-.24.84-3.54H541.83v1.15h1.71c1.22,0,1.45.13,1.45,4.7v14.45c0,.34-.08.55-.57.55H542.7Z" transform="translate(-461.63 -470.66)"/><path class="cls-4" d="M571.16,505.28h-6.59v1.15h1.11c1.48,0,2.32,1.56,2.32,3.49v15.76c0,.45-.19.45-1.18.45h-1.07v1.14h7.13v-1.14h-1.52c-1,0-1.3-.07-1.49-1.14a43.83,43.83,0,0,1-.27-6.06v-9.6l16.85,17.38c.61.63.84.91,1.14.91s.38-.18.38-.42V506.88c0-.45.19-.45,1.18-.45h1.07v-1.15h-7.13v1.15h1.53c1,0,1.29.07,1.48,1.14a43.76,43.76,0,0,1,.27,6.06V521Z" transform="translate(-461.63 -470.66)"/><path class="cls-4" d="M616.09,505.84a19.48,19.48,0,0,0-6.48-1.21c-8,0-15.16,4.84-15.16,12.49,0,7.24,5.34,10.81,12.92,10.81a23.55,23.55,0,0,0,9-1.77c.19-2.32.31-3,.31-3.32s-.16-.38-.5-.38-.5.31-.57.62c-.46,2.36-5,3.43-7.13,3.43-6.1,0-9.41-4.88-9.41-10,0-5.72,3.85-10.42,10.21-10.42,2.33,0,5.11,1,5.38,2,.18.69.23.86.57.86s.57,0,.83-3.11" transform="translate(-461.63 -470.66)"/><path class="cls-4" d="M628.67,507c0-.35.08-.55.57-.55H631v-1.15h-9.87v1.15h1.72c1.22,0,1.44.13,1.44,4.7v14.45c0,.34-.06.55-.56.55H622v1.14h9.87v-1.14h-1.71c-1.22,0-1.45-.14-1.45-4.71Z" transform="translate(-461.63 -470.66)"/><path class="cls-4" d="M649,519.31l2.29,6c.27.69.15.83-.57.83H649v1.14h9.61v-1.14h-.92c-1.29,0-1.6-.45-2.74-3.26-2.1-5.22-6.36-15.41-6.36-16.61,0-.7.76-.77.76-1.18a.41.41,0,0,0-.38-.45,25.55,25.55,0,0,0-3.05.55c-3.89,8.31-7.85,16.52-9.45,20.33a.91.91,0,0,1-1,.62h-1.21v1.14H642v-1.14h-2.17c-.65,0-1.07-.11-1.07-.76,0-1,1.34-4.16,2.14-6.06Zm-.61-1.35h-6.89c1.18-2.74,2.36-5.51,3.77-8.25Z" transform="translate(-461.63 -470.66)"/><path class="cls-4" d="M471.77,493.24h7.16c7,0,9-3.5,9-5.84,0-2.74-2.82-5.32-8.75-5.32h-8v.58h1.17c.84,0,1,.06,1,2.39v7.33c0,.17-.06.28-.39.28h-1.18Zm12.91-5.1c0,2.85-3.09,4.45-7.32,4.41-.89,0-1-.05-1-3.8V483c0-.25.13-.25,1.35-.25,3.72,0,7,1.85,7,5.38" transform="translate(-461.63 -470.66)"/><path class="cls-4" d="M495.79,482.94c0-.18,0-.28.39-.28h1.17v-.58h-6.77v.58h1.18c.84,0,1,.06,1,2.39v7.33c0,.17-.05.28-.39.28h-1.17v.58H498v-.58h-1.17c-.84,0-1-.07-1-2.39Z" transform="translate(-461.63 -470.66)"/><path class="cls-4" d="M505.53,488a11.22,11.22,0,0,0,2.3.23c3.08,0,5.77-1.26,5.77-3.07,0-1.22-1-3-5.75-3h-7.52v.58h1.17c.84,0,1,.06,1,2.39v7.33c0,.17-.06.28-.4.28h-1.17v.58h6.77v-.58h-1.18c-.83,0-1-.07-1-2.39Zm0-5c0-.18.08-.23.34-.23h.7c3.12,0,4,1.62,4,2.58,0,1.37-1.46,2.22-3.45,2.22a6.19,6.19,0,0,1-1.59-.19Z" transform="translate(-461.63 -470.66)"/><path class="cls-4" d="M522.07,482.08H515.3v.58h1.18c.84,0,1,.06,1,2.39v4.67c0,1.92,1.41,3.85,6.74,3.85,3.32,0,6.83-1.23,6.83-4.46v-6.23c0-.22.13-.22.81-.22h.73v-.58h-4.89v.58h1c.7,0,.89,0,1,.58a16,16,0,0,1,.19,3.07v2.74c0,3.54-3.85,3.71-5,3.71-4.26,0-4.42-2.53-4.42-3.92v-5.9c0-.18,0-.28.39-.28h1.18Z" transform="translate(-461.63 -470.66)"/><path class="cls-4" d="M546.4,492.66h-1.75c-.84,0-1-.07-1-2.39v-7.51h.5c1.21,0,4.06,0,4.71.91.15.22.26.34.5.34s.34-.07.34-.21-.22-.43-.82-1.72H535.4c-.61,1.29-.81,1.65-.81,1.72s.16.21.34.21.34-.12.49-.34c.65-.87,3.5-.91,4.71-.91h.49v9.62c0,.17,0,.28-.38.28h-2v.58h8.13Z" transform="translate(-461.63 -470.66)"/><path class="cls-4" d="M559.62,489.19l1.57,3.05c.18.35.11.42-.39.42h-1.18v.58h6.59v-.58h-.62c-.89,0-1.1-.23-1.89-1.65-1.43-2.66-4.36-7.83-4.36-8.44,0-.35.52-.39.52-.6a.23.23,0,0,0-.26-.23c-.39,0-1.65.21-2.09.28-2.67,4.22-5.38,8.39-6.48,10.32-.13.23-.29.32-.68.32h-.84v.58h5.31v-.58h-1.49c-.45,0-.74-.06-.74-.39a12.47,12.47,0,0,1,1.47-3.08Zm-.41-.68h-4.73c.81-1.39,1.62-2.8,2.59-4.18Z" transform="translate(-461.63 -470.66)"/><path class="cls-4" d="M583.6,482.36a17.17,17.17,0,0,0-4.43-.62c-5.49,0-10.41,2.46-10.41,6.35,0,3.67,3.66,5.48,8.86,5.48a20.9,20.9,0,0,0,6.2-.9c.13-1.17.21-1.54.21-1.68s-.11-.2-.35-.2-.34.16-.39.32c-.31,1.2-3.42,1.74-4.89,1.74-4.18,0-6.45-2.48-6.45-5.1,0-2.9,2.64-5.29,7-5.29,1.59,0,3.49.53,3.68,1,.13.35.16.44.39.44s.39,0,.57-1.58" transform="translate(-461.63 -470.66)"/><path class="cls-4" d="M592.64,482.94c0-.18.05-.28.39-.28h1.17v-.58h-6.77v.58h1.18c.84,0,1,.06,1,2.39v7.33c0,.17-.05.28-.39.28H588v.58h6.76v-.58h-1.17c-.84,0-1-.07-1-2.39Z" transform="translate(-461.63 -470.66)"/><path class="cls-4" d="M605.47,481.27a33.83,33.83,0,0,1,3.9-1.59,2.89,2.89,0,0,0-1.1-.57,12.84,12.84,0,0,0-3.4,1.77Zm.45,12.3c5.36,0,8.94-2.7,8.94-6.21s-3.32-5.62-8.42-5.62c-5.35,0-8.94,2.71-8.94,6.2s3.32,5.63,8.42,5.63m.76-.63c-2.41,0-6.14-1.41-6.14-5.94s4.33-4.63,5.14-4.63c2.41,0,6.15,1.41,6.15,5.95s-4.34,4.62-5.15,4.62" transform="translate(-461.63 -470.66)"/><path class="cls-4" d="M625.84,493.24H633c7,0,9-3.5,9-5.84,0-2.74-2.82-5.32-8.76-5.32h-8v.58h1.18c.83,0,1,.06,1,2.39v7.33c0,.17,0,.28-.39.28h-1.18Zm12.91-5.1c0,2.85-3.08,4.45-7.31,4.41-.89,0-1-.05-1-3.8V483c0-.25.13-.25,1.37-.25,3.7,0,6.94,1.85,6.94,5.38" transform="translate(-461.63 -470.66)"/><path class="cls-4" d="M645.48,493.24h12.29a8.46,8.46,0,0,0,.67-1.67c0-.13-.1-.21-.28-.21a.41.41,0,0,0-.39.22c-.82,1-4.37,1-5.78,1h-.91c-.89,0-1-.05-1-3.79v-1.29h2.43c2.77,0,2.88.2,2.88.49v.63h.78V485.5h-.78v.62c0,.51-.11.72-2.88.72h-2.43V483c0-.18.08-.23.34-.23h1.89c3,0,4.36.42,4.38.72s.08.39.43.39.28-.12.57-1.79H644.88v.58h1.18c.84,0,1,.06,1,2.39v7.33c0,.17,0,.28-.39.28h-1.18Z" transform="translate(-461.63 -470.66)"/></svg>