<?xml version="1.0" encoding="utf-8"?>
<!-- Generator: Adobe Illustrator 26.2.1, SVG Export Plug-In . SVG Version: 6.00 Build 0)  -->
<svg version="1.1" id="Isolation_Mode" xmlns="http://www.w3.org/2000/svg" xmlns:xlink="http://www.w3.org/1999/xlink" x="0px"
	 y="0px" viewBox="0 0 205.9 76" style="enable-background:new 0 0 205.9 76;" xml:space="preserve">
<style type="text/css">
	.st0{fill:#FFFFFF;}
</style>
<g>
	<g>
		<path class="st0" d="M33.3,41.1c-1.5,1.5-3.6,3.5-3.8,5.5c-0.2,2.7,1.2,4.3,3.1,5c2.1,0.8,10.4,0.9,11.9-0.4c1.2-1.1,1-3.1,1-5.9
			c0-2,0.3-4-0.1-5.5c-0.7-2.5-3.2-4.2-6-3.6C37,36.7,34.9,39.5,33.3,41.1 M15.5,24.1c-0.7,1.9-0.6,8.4,0,10.3
			c0.8,2.2,3.5,3.9,6.1,3.4c1.8-0.4,3.6-2.7,5.1-4.3c1.7-1.7,3.9-3.2,4.4-5.1c0.9-3.1-1.1-5.5-3.1-6.3c-1.1-0.4-3.1-0.3-4.8-0.3
			c-1.7,0-3.8-0.2-5.3,0.1C16.6,22.2,15.9,23.1,15.5,24.1 M49.9,11.7h1c3.2,0.5,5.6,3.4,4.4,6.9c-1.1,3.2-5.6,5.2-7.1,7.8
			c3.9,1.1,7.2,4,7.5,9.5c0.3,5.4,0.3,13.7-0.1,18.3c-0.2,1.8-2.2,4.6-3,5.4c-1.5,1.4-3.7,2.2-5.9,2.6H29.6c-5.3-0.4-8.2-3-9.6-7.3
			c-2.1,0.9-5,5.9-7.6,6.9c-3.4,1.2-6.6-1-7-4.1v-1.3c0.2-2.5,3.1-3.7,3.1-5.1c1.4-1.2,3-2.2,4.1-3.6c-4.1-1.3-6.6-4.2-7.3-9V21.1
			c0.4-4.3,3.4-8,7.5-9c2.8-0.7,6.8-0.3,10.6-0.3c3.3,0,6.7-0.2,9.1,0c4.6,0.3,7.3,3.9,8.4,7.1C44.1,17.2,45.8,12.8,49.9,11.7"/>
		<path class="st0" d="M111.3,13.2c1.1,3.9-8.7,5.3-8.8,1.7C102.5,12,109.5,10.8,111.3,13.2"/>
		<path class="st0" d="M142.8,30.8c1.2-0.2,1.4-2.5,0.8-3.6C140.6,26.3,140.5,31.2,142.8,30.8 M152.6,30.2c0.1,4.1-6,5.3-8.1,2.5
			c-3.6,2.9-10.7,1.7-9.8-3.8c0.6-3.6,5.1-4,9-4.5c0.4-1.8,0.1-3.9-1.5-4.1c-2.2,0.8-2.1,3.9-5.5,3.5c-3.5-3.6,3.5-5.9,6.6-6.1
			c2.7-0.2,5.6,0.8,6.8,2.8C151.8,23.4,149,29.6,152.6,30.2"/>
		<path class="st0" d="M91.9,30.8c0.6-0.7,0.8-2.8,0.1-3.5C88.9,26.6,89.1,32.2,91.9,30.8 M101,30.5c0.2,4.1-6.2,5.2-8.1,2.4
			c-3.3,2.9-10.3,2-9.8-3.3c0.4-3.8,4.7-4.4,8.9-4.8c0.6-1.5,0.2-4.1-1.1-4.3c-1.6-0.2-2.4,2.9-3.9,3.4c-2.5,0.9-3.5-1.5-2.5-3
			c1.3-2.1,6.1-3,7.9-3c3.2,0.1,6.3,1.4,6.8,4.3C99.7,25.4,97.9,30,101,30.5"/>
		<path class="st0" d="M125.8,20.8c0.2,0.7,0.6,1.4,1.3,1.8c0.8-0.5,1.4-0.7,1.5-1.6c0.1-0.7-0.8-1.2-0.6-2c0.3-1.6,6.6-2.1,6.3,0.7
			c-2.5,1.2-3.7,3.6-5.3,5.8c1.2,1.4,2.1,3.9,3.5,5.1c0.6,0.5,1.7,0.6,1.9,1.4c0.6,2.6-6,2.5-8.8,2.3c-1.3-0.1-2.9-0.4-2.9-1.8
			c0-1,1.1-1,1.2-1.6c0.3-1.4-0.8-1.6-1.6-2.6c-1,1-2,1.6-2,2.9c0,0.7,0.9,1.2,0.7,2c-0.4,1.9-7.8,1.7-6.6-0.9
			c0.3-0.7,1.8-0.8,2.4-1.4c1.5-1.5,2.1-4,3.4-5.6c-0.9-1.1-1.8-3-3.1-3.9c-0.8-0.5-2.2-0.5-2.4-1.4c-0.4-2.4,6.1-2.4,9-2.1
			C125.7,18,127.4,18.9,125.8,20.8"/>
		<path class="st0" d="M73.5,18.1c3.8-0.4,8.1,0.7,8.6,4c0.4,2.6-2.4,5.2-4.8,3.4c-1.1-0.8-0.5-3.3-2.4-3.5c-2-0.3-2.6,2-2.4,3.6
			c0.3,1.9,2.1,4.1,5.1,3.8c1.3-0.1,1.9-1.1,3-0.6c1.2,0.5,0.8,2.6-0.1,3.6c-1.6,1.6-4.6,2.6-8,2.1C68.7,34,65,30.3,65.7,25
			C66.2,21.4,69.4,18.5,73.5,18.1"/>
		<path class="st0" d="M111.3,18.2c1.2,4-0.7,8.2,0.4,11.8c0.3,0.9,1.7,1.4,1.8,2.3c0.2,2.4-4.6,2.4-6.9,2.3
			c-1.7-0.1-4.1-0.4-4.3-1.8c-0.1-1.4,1.8-1.8,2-3.6c0.2-1.4,0.3-4.7-0.1-5.6c-0.3-0.8-1.9-1.2-2-2c-0.3-2,5-3,7.1-3.3
			C109.7,18.1,110.8,17.9,111.3,18.2"/>
		<path class="st0" d="M162.1,34.3c0.3,3.9-0.1,9-0.1,14c0,1.6-0.3,3.5,0.3,4.5c0.3,0.7,1.5,0.9,1.6,1.6c0.4,2.6-5.9,2.4-8.6,2
			c-1.2-0.2-2.4-0.9-2.4-1.9c0-0.9,1.4-1.1,1.8-1.9c0.9-1.9,0.6-8.6,0.4-10.9c0-0.3-0.1-1.4-0.3-1.6c-0.3-0.7-2.1-1.4-2.3-2.4
			c-0.5-2.8,4.6-3.3,7.3-3.6C160.3,34.1,161.5,33.9,162.1,34.3"/>
		<path class="st0" d="M76.9,44.7c-2.6-0.2-1.8,5.2-1.6,7.3C79.6,54.8,80.1,45,76.9,44.7 M74.3,62.1h-2.7c-1.3-0.3-2.4-0.4-3.8-1
			c-0.8-0.4-2.6-1-2.2-2.5c0.1-0.6,1.5-1.2,1.9-2c1.2-2.5,0.1-7,0.1-10.8c-0.9-0.6-1.9-0.4-2.1-1.4c-0.7-3.1,7.3-4.3,9.4-4.3
			c0.5,0.2,0,1.4,0.6,1.5c2-0.6,3.2-2.2,6.1-1.6c3.6,0.7,5.5,5.1,5,9.3c-0.5,4.1-3.8,7.9-8.5,7.3c-1-0.1-1.4-0.7-2.6-0.6
			c-1.4,2,1.8,2.8,1.8,4.3C77.2,61.5,75.8,61.8,74.3,62.1"/>
		<path class="st0" d="M95.7,45.4c-0.1,2.5,1.2,7.8,3.4,7.4c0.6-0.1,1-0.9,1.1-1.9c0.2-2.6-1.2-7.5-3.3-7
			C96.4,44,95.8,44.8,95.7,45.4 M97.2,40.2c5.2-0.6,9.5,2.2,10.1,6.5c0.2,1-0.1,3.1-0.2,3.8c-0.9,3-4.6,5.7-8.3,6.1
			c-4.5,0.5-9.1-1.4-10.1-5.5c-0.9-3.7,1.1-7.4,3-8.9C93.1,41.2,94.6,40.5,97.2,40.2"/>
		<path class="st0" d="M118.1,45c-0.8,1.6-0.7,4.7-0.5,6.9C122.2,55.3,123,43.1,118.1,45 M116.8,62.1H114c-1.8-0.3-6.3-1.2-6-3.4
			c0.1-0.7,1.7-1.3,2-2c0.6-1.3,0.4-3.4,0.4-5.4c0-1.8,0.1-3.7-0.3-5.5c-0.9-0.5-2.2-0.3-2.3-1.8c-0.1-2.8,7.2-3.9,9.4-3.9
			c0.6,0.1,0.1,1.4,0.7,1.5c2.1-0.7,3.1-2.1,5.9-1.6c3.6,0.6,5.7,4.9,5.3,9c-0.4,3.5-2.9,7-6.4,7.5c-2.1,0.3-3.3-0.5-4.8-0.6
			c-1.4,2,1.7,2.7,1.6,4.3C119.6,61.6,118.3,61.8,116.8,62.1"/>
		<path class="st0" d="M172.7,53.2c1.4-0.1,1.5-2.2,1-3.6C170.9,48.6,170.4,53.4,172.7,53.2 M182.6,52.6c-0.1,2.9-3,4.7-5.9,4
			c-0.8-0.2-1.5-1.5-2.3-1.5c-1.1,0-2,1.3-3,1.5c-4.2,0.8-6.9-1.5-6.8-4.5c0.2-3.6,4.3-5,9-5.3c0.3-1.7,0.3-3.8-1.1-4
			c-2-0.3-2.4,2.7-4.1,3.3c-1.5,0.4-2.5-0.1-2.7-1c-0.4-1.4,1.1-2.8,1.7-3.3c3.6-2.4,12.3-2.8,13.3,2.5c0.2,1-0.1,2.7,0,3.9
			C180.8,50.1,180.6,52.4,182.6,52.6"/>
		<path class="st0" d="M139,40.6c0.5,2.7-0.3,8,0.2,10.5c0.5,2.2,3.3,2.3,3.8,0.1c0.3-1.4,0.3-5-0.1-6.4c-0.4-1.4-1.8-0.9-1.8-2.3
			c0-1.5,2.2-1.6,3.9-1.9c0.9-0.1,4-0.8,4.9,0.1c0.6,0.6,0.3,1.8,0.2,3.3c-0.1,2-0.5,6.8,0.1,8.1c0.4,0.9,1.5,0.6,1.6,1.6
			c0.4,2.5-5.5,3-8.4,2.9c-0.5-0.3-0.2-1.5-0.8-1.8c-1.7,0.3-2.1,1.5-3.6,1.8c-2,0.4-4.2,0-5.4-1c-3-2.6-0.4-8.4-2-11.1
			c-0.4-0.6-1.8-1.2-1.8-2C130.1,40.7,137,40.2,139,40.6"/>
		<path class="st0" d="M200.7,43.1v1.4c-0.5,1.9-2.4,3.4-4.5,3.1c-1.4-0.2-1.8-1.6-3.1-1.8c-0.9,1.6-0.4,4.9,0,6.6
			c0.8,0.8,2.2,0.4,2.4,1.6c0.5,2.5-3.8,2.4-5.8,2.5c-2.4,0.1-6.2,0-6.3-2c0-1.1,1.4-1.5,1.9-2.6c0.4-1.1,0.7-5.2,0.1-6.6
			c-0.3-0.7-1.5-0.8-1.8-1.8c-0.6-2.6,5.9-3.4,8.5-3.4c0.8,0.3,0.1,2.2,1,2.4c1.3-1.1,2.8-3.1,5.4-2.3
			C199.7,40.7,200.3,41.8,200.7,43.1"/>
	</g>
</g>
</svg>
