<svg id="Layer_1" data-name="Layer 1" xmlns="http://www.w3.org/2000/svg" viewBox="0 0 300.71 95.35"><defs><style>.cls-1{fill:#fff;fill-rule:evenodd;}</style></defs><path class="cls-1" d="M9,85.85c-.58-1.43-.26-3.25-1.73-3.25-1.77,0-1.43,3.32-1.43,5.9s-.41,5.89,1.43,5.91c2,0,.6-2.68,1.84-3.56a1.65,1.65,0,0,1,1.42-.11c1.32.65.34,4.55-.21,5.4-.89,1.41-3.47,2.53-5.29,1-2.18-1.81-1.94-8.47-1.63-13,.19-2.89,2-6.24,5.4-4.69a4.44,4.44,0,0,1,1.73,1.74C11.26,82.56,11.92,87.3,9,85.85Zm4.68-5.8c-1.75,1.72-1.78,8.36-1.42,13,.25,3.19,2.45,6.1,5.61,4.37,2-1.11,2.13-4.18,2.13-7.94,0-4.8.47-11-4.38-10.29A3.68,3.68,0,0,0,13.66,80.05Zm2.15,2.64c1-.25,1.58.54,1.73,1.84a41.3,41.3,0,0,1,0,7.94c-.27,2.32-2.51,2.77-2.86.2a43.56,43.56,0,0,1,0-8.24C14.78,83.69,15.07,82.88,15.81,82.69Zm8.25,4.08c0-2.28.55-6.23-.31-7.23a1.42,1.42,0,0,0-2.14.2c-.18,4.21-.1,9.29-.1,13.65,0,1.49-.31,3.13.51,4.18a34.31,34.31,0,0,0,5.91,0,3.34,3.34,0,0,0,0-3.16,28.66,28.66,0,0,0-3.87-.1Zm7.84-7.23a72.63,72.63,0,0,0-.2,9c0,3.14-.24,6.34.3,9a24.44,24.44,0,0,0,6.12.11,3.65,3.65,0,0,0,0-3.16c-1.1-.3-2.88.09-4-.2-.06-4.82.14-9.92-.1-14.57A1.55,1.55,0,0,0,31.9,79.54Zm8.46-.41c-1.29.24-.92,2.5-.92,4.48V93c0,1.42-.19,4,.3,4.47,1.16,1,5.35-.35,6.73.21a3.57,3.57,0,0,0,0-3.36,42.68,42.68,0,0,1-4.58-.1,33.18,33.18,0,0,1,.1-4.28h2.54a2.62,2.62,0,0,0,.11-3,14.37,14.37,0,0,0-2.75-.11A33.07,33.07,0,0,1,42,82.6a38.51,38.51,0,0,0,4.48-.11,3.35,3.35,0,0,0,0-3.26C44.51,79.31,42.22,78.78,40.36,79.13Zm10.79,0c-3.57.33-3.46,4.92-3.46,8.87,0,2.94-.16,6.48.81,8.14,1.44,2.44,5.09,2,6.32-.3.56-1,1.17-4.29.2-5a1.47,1.47,0,0,0-1.62,0c-1.11.8.15,3.49-1.74,3.56s-1.52-3.36-1.52-5.91c0-2.21-.44-6,1.52-5.9,2.17.06.25,4.56,3.36,3.25C56.3,82.49,54.47,78.82,51.15,79.13Zm5.2.2a3.55,3.55,0,0,0,0,3.16,13,13,0,0,0,2.55.11v7.84c0,1.59-.55,6.85.71,7.23,2,.62,1.73-1.65,1.73-3.26,0-4-.08-8.68.1-11.81h2.35a3.38,3.38,0,0,0,.1-3.37c-2.21-.24-4.85,0-7.23-.1A.7.7,0,0,0,56.35,79.33ZM67.76,93.39V84c0-2,.54-5.17-1.53-4.89-1.47.2-1,3.28-1,5v9.37c0,1.66-.39,3.45.72,4.08.26.22,1,.09,1.32,0C68,96.61,67.76,95,67.76,93.39Zm1.63-10.9c0,2.74-.14,8.85,0,10.7.24,3.17,3.12,6.39,6.22,4,1.88-1.47,1.72-5.89,1.72-8.86V83c0-1.59.31-4.16-1.52-3.87-1.54.24-.92,5.42-.92,8,0,2.89.62,7.31-1.53,7.33s-1.52-4.16-1.52-6.73V83.51c0-2.48.38-4.7-1.53-4.28C69.08,79.5,69.39,80.68,69.39,82.49ZM86.3,80.76c-1.09,1.7-.92,5.7-.92,9.37,0,4.18.77,9.13,5.2,7.54,2.78-1,2.55-5.13,2.55-9.17,0-4.47.37-10-4.39-9.27A3.37,3.37,0,0,0,86.3,80.76ZM89,82.69c2.2-.64,1.73,3.33,1.73,5.71,0,2.87.43,5.95-1.32,6s-1.43-3-1.43-5.5S87.43,83.14,89,82.69Zm7.74-.6c-.23-1.38-.18-2.91-1.22-3a2,2,0,0,0-1.53,1.32c-.16.81.45,2.77.71,4.18.49,2.58,1.2,6.11,1.63,8.36.34,1.75.33,4.72,2,4.89,2.25.22,2.19-3.08,2.44-4.49.48-2.6,1.18-6.12,1.64-8.56.27-1.48,1-3.35.71-4.48-.09-.42-.9-1.5-1.84-1.22-.69.2-.74,2.09-.92,3.16-.58,3.52-1.25,7.42-1.83,10.38C98.05,89.85,97.23,85.39,96.69,82.09Zm8.35-3c-1.46.18-1,2.74-1,4.58v9.58c0,1.57-.2,3.89.5,4.28a2.06,2.06,0,0,0,1.73-.2c.5-.58.21-3.42.21-4.28,0-4.76.08-9.25-.1-13.45A1.68,1.68,0,0,0,105,79.13Zm8.15,18.44c2.35-.66,2.75-4,2.75-7.34s.45-7.26-.81-9.37c-1-1.65-4-2.11-6.42-1.63-.83,1-.51,2.67-.51,4.18V93c0,1.6-.22,3.19.31,4.47A12.26,12.26,0,0,0,113.19,97.57Zm-2.44-15c3-.61,2.75,1.77,2.75,4.58s.32,5.56-.71,6.92a5.68,5.68,0,0,1-2.14.21C110.71,90.44,110.51,86.29,110.75,82.6Zm7.74-3.47c-1.45.18-1,2.76-1,4.68v9.48c0,1.59-.18,3.9.51,4.28a2.27,2.27,0,0,0,1.63-.11c.53-1.22.31-2.73.31-4.17,0-4.56.08-9.39-.11-13.65A1.72,1.72,0,0,0,118.49,79.13Zm11.71.1c-2.5-1-1.93,3-1.93,5.09v4.49c0,3.33-.23,6.6.31,8.65,2.82,1.29,2.14-2.59,2.14-5a53,53,0,0,1,.09-5.49c.67.85.85,5,2.25,4.89s1.42-4.12,2.24-4.69v5.4c0,1.19-.29,4.56.51,5a2,2,0,0,0,1.73-.2c.49-.57.2-3.42.2-4.7V87.79c0-2.25.7-8.43-1.12-8.66-1.55-.2-1.88,1.85-2.24,2.85-.49,1.36-1,2.54-1.42,3.67C132.08,84.33,131.76,79.87,130.2,79.23Zm9.17,4.48a65.16,65.16,0,0,0,0,9.78c.27,2.75,2.1,5.26,5.1,4.18,2.66-1,2.64-4.85,2.64-8.86,0-4.78.24-10.23-4.38-9.58C140.58,79.53,139.57,81.11,139.37,83.71Zm3.57-1c2.11-.49,1.63,3.39,1.63,5.81,0,2.88.4,5.88-1.33,5.91s-1.42-3-1.42-5.6C141.82,86.55,141.29,83.08,142.94,82.69Zm9.68,1.23c-.33-1-1-4.06-1.83-4.59-2.58-1.53-2.15,2.57-2.15,4.69v9.37c0,2.71-.34,5.15,2.15,4.07.74-2.54,0-6.59.4-9.46.65,1.85,1.09,3.56,1.63,5.09.37,1,1.22,4.37,2.24,4.58,2.2.46,1.63-2.3,1.63-4.28V83.92c0-1.26.3-3.89-.3-4.49a1.62,1.62,0,0,0-1.73-.1c-.74.54-.41,3.06-.41,4.59a38,38,0,0,1-.11,4.89C153.62,87,153.16,85.53,152.62,83.92Zm5.49-1.43a12,12,0,0,0,2.45.11v7.74c0,2.54-.37,5.46.51,7.23a1.86,1.86,0,0,0,1.73-.2c.54-4.49-.06-10.12.31-14.77a11.87,11.87,0,0,0,2.44-.11,3.37,3.37,0,0,0,0-3.26c-2.21-.24-4.85,0-7.23-.1C157.46,79.53,157.54,81.83,158.11,82.49Zm9-2.85c-.1,5.64-.3,12.26.1,17.73,1.48.66,4.14.13,6.12.3a3.57,3.57,0,0,0,0-3.36,30.35,30.35,0,0,1-3.87-.1c-.13-4.83.26-10.18-.21-14.67A1.55,1.55,0,0,0,167.08,79.64Zm10.09,7.23c0-1.5.48-6.42-.21-7.33a1.53,1.53,0,0,0-2.14.1c-.18,4.26-.1,9.19-.1,13.55,0,1.47-.22,3,.31,4.27,1.62.46,4.06.09,6,.21a3.57,3.57,0,0,0,0-3.36h-3.87Zm5-2.75a72.53,72.53,0,0,0,0,9c.27,3.32,2.54,6,5.61,4.37,2-1.07,2.14-4,2.14-7.64,0-4.84.57-11.29-4.38-10.59C183.19,79.56,182.32,81.65,182.15,84.12Zm3.58-1.43c1-.25,1.58.55,1.72,1.84a39.37,39.37,0,0,1,0,8c-.29,2.29-2.53,2.56-2.85,0a43.43,43.43,0,0,1,0-8.15C184.7,83.69,185,82.88,185.73,82.69Zm12-3c-1.06-.77-4.32-.8-5.9-.41-.61.65-.41,2.89-.41,4.38v9.58c0,1.59-.29,3.21.51,4.28a2.66,2.66,0,0,0,1.53,0c1.17-1.48,0-5.29.71-7.23,1-.28,1,.92,1.22,1.53s.49,1.43.72,2.13c.32,1,.78,3.75,1.73,3.88s1.6-1.28,1.63-1.94c.06-1.86-1.83-4.55-2-6.12C199.84,88,200.37,81.65,197.74,79.74ZM194,87.38V82.6C198.05,81.28,198,88.67,194,87.38ZM29.15,92c1.68,0,1.57-4-.41-3.37C27.47,89,27.72,92,29.15,92ZM93.53,25.85c-2.07,1.7-2.56,5.3-3.15,8.76-1.13,6.62-2,12.74-3.06,19.15a25.9,25.9,0,0,1-.61,3.88,14.9,14.9,0,0,1-2.14,3.15c-.78,1-1.57,2-2.44,3-1.86,2-3.55,4.24-6,4.79-4.83,1.07-4.54-6.55-3.66-10.19,4.13-.7,8.72-1.38,11-4s2.76-9.67,2.34-14.66c-.23-2.72-2.43-4.43-5.3-3.06-1.42.68-3,2.57-4.17,4C72.74,45,70,51.39,68.47,57.23c-.75.19-2-.1-1.73,1.12-.14.28,1.23-.08,1.43.2-1.43,6.53.74,13,7.23,12.33,4.84-.51,7.45-5.26,10.6-7.23.06,2.71-1.1,9.3.81,10.28,1,.5,2.23-.27,3.16-.91.64-.44,2-1.29,2.24-1.84s0-1.39.1-2c-.68.09-1.72,1.26-2.55,1.22C89.37,62.3,91,54.43,92.72,48c0-.21.81-2.86.81-2.86,0-.29,0-.39,0-.81a40.29,40.29,0,0,1,1.12-4.08c.74-2.82,1.45-5,2.24-7.94.4-1.48.9-3.07.61-4.28a2.92,2.92,0,0,0-3.86-2C93.53,25.85,93.84,25.78,93.53,25.85ZM73,56.1c.9-3.58,3.45-8.63,5.5-12.11,1-1.6,1.7-3.23,3.27-3.88.93-.38,1,3.16,1,4.38,0,3-.2,6.14-1.52,7.64C79.06,54.58,76.19,55,73,56.1Z" transform="translate(-3.18 -2.66)"/><path class="cls-1" d="M218.42,8.74a22.56,22.56,0,0,1,11.31-5.5c4.71-.87,10.21-.51,16.1-.51H279c.18.23.79,0,1.13.1,15.41.81,22.74,9.72,23.43,25.26.07.48-.14,1.22.1,1.53v7c.07,2.72-.14,5.7.1,8.25v8.25c.07,2.72-.13,5.71.1,8.25v7.14c-.23.17,0,.77-.1,1.12q-.66,13.23-7.23,20.57a6.65,6.65,0,0,0-1.12,1.13c-3.83,3.37-8.81,5.58-15.59,6-.34.06-1-.14-1.12.09H210.28V29.22c.35-8.45,2.9-14.69,7-19.36A6.59,6.59,0,0,0,218.42,8.74Zm14.26,21.69c-1.93,0-4.09.35-4.17,1.94-.06,1.07,1.41,1.91,2.34,2.65,6.67,5.3,13.6,10.54,20.17,15.48C257,55,262.57,59.35,269,63a14.9,14.9,0,0,0,7.74,2.44c.15.23.71,0,1,.1h1.53a5.43,5.43,0,0,0,2.34,0c1.9-.13,5.75.09,6-1.73.17-1.15-1.8-3.19-2.54-4.17-5.1-6.76-9.72-12.75-15-19.06-2.12-2.55-4.14-5.44-6.52-7.13-3.07-2.17-8.47-2.6-13.34-2.65-.21-.23-.85,0-1.22-.09h-1.64a7.3,7.3,0,0,0-2-.11h-2c-.47-.24-1.39,0-2-.1H239.1a8.58,8.58,0,0,0-2.14-.11h-2.64A2.86,2.86,0,0,0,232.68,30.43ZM93.64,26a2.92,2.92,0,0,1,3.86,2c.29,1.21-.21,2.8-.61,4.28-.79,3-1.5,5.12-2.24,7.94a33.7,33.7,0,0,0-1.12,4.08c-.16,1.74.34,3.57.11,5.4.16,6.46,1.5,11.74,4.58,15.28a7,7,0,0,1,1.12,1.12,12.8,12.8,0,0,0,8,3.16h1.32a13.75,13.75,0,0,0,8.76-3.47,6.09,6.09,0,0,1,1-1c2.65-3.06,4.34-7.08,4.58-12.54V49.08c-.11-2.87-1-4.92-3.87-5.09h-1.63c-6.84.31-1.38,12.94-8.45,13a1.9,1.9,0,0,1-1.33,0c-3.24-.23-4.55-3.45-4.78-6.93-.38-5.67,0-12,0-19,0-6.23-.8-13.89,3.67-15.39a8.54,8.54,0,0,1,3.56,0c2.51.91,3.3,3.77,3.46,7.24.23.14,0,.71.11,1-.23,3.68,5.41,4.93,7.84,2.85,1.2-1,1.17-2.46,1.42-4.28V19.43c-.68-9.67-5.87-16.28-15.17-16.19A13,13,0,0,0,99.24,6.5c-3.65,3.26-5.54,9.55-5.6,16.29ZM133.26,6.4a18.3,18.3,0,0,1,3.36-2.14A14.45,14.45,0,0,1,151.9,7.11c3.66,3.7,4.68,9.32,5,15.07V50.3c-.5,10.5-3.87,18.13-14.06,19h-1.32c-10.38-.84-13.68-8.74-14.06-19.56V22.79c.16-6.35,1.48-11.55,4.48-15.07A10.29,10.29,0,0,0,133.26,6.4Zm14.27,17c-.05-3.47-.95-6.59-3.26-7.63a5.79,5.79,0,0,0-4.18,0c-4,1.77-3.27,9.31-3.27,15.58,0,6.79-.41,13.13,0,18.85.26,3.41,1.63,6.71,4.7,6.83a1.87,1.87,0,0,0,1.32,0c3.68-.5,4.53-3.83,4.69-7.85C147.7,40.83,147.7,31.76,147.53,23.4ZM163,64.77c-.1,4.52,7.07,5.15,8.86,1.83.95-1.76.51-5.73.51-8.76,0-9-.08-19.75.1-27.81,1.52,4.51,3.45,9.56,5.19,14.36.66,1.81,1.25,3.36,3,3.67,2.07.37,3.1-1.36,3.77-3.05,1.89-4.84,3.57-9.34,5.4-13.86,0-.11.16-.24.2-.1.29.91,0,2.76,0,4.17v30c.23,4.71,9.14,4.66,9.28-.1V9.15a5.38,5.38,0,0,0-8.46-5c-1.35.93-2.21,3.17-3,5-2.22,5.46-4.66,12.33-6.82,17.11-1.83-4.9-4.48-12.06-6.72-17.42C173.53,7,172.65,4.77,171.16,4a7,7,0,0,0-4.89-.51c-2.18.76-3.17,3.23-3.26,6.32Z" transform="translate(-3.18 -2.66)"/></svg>